<svg width="141" height="32" viewBox="0 0 141 32" fill="none" xmlns="http://www.w3.org/2000/svg">
<g clip-path="url(#clip0_650_341)">
<path fill-rule="evenodd" clip-rule="evenodd" d="M1.68064 3.70953C0 6.04315 0 9.3621 0 16C0 22.6379 0 25.9569 1.68064 28.2904C2.24387 29.0725 2.93024 29.7582 3.71303 30.321C6.04884 32 9.37092 32 16.0151 32C22.6592 32 25.9813 32 28.317 30.321C29.0999 29.7582 29.7862 29.0725 30.3496 28.2904C32.0302 25.9569 32.0302 22.6379 32.0302 16C32.0302 9.3621 32.0302 6.04315 30.3496 3.70953C29.7862 2.92748 29.0999 2.24175 28.317 1.67905C25.9813 0 22.6592 0 16.0151 0C9.37092 0 6.04884 0 3.71303 1.67905C2.93024 2.24175 2.24387 2.92748 1.68064 3.70953ZM22.564 11.6283C23.4294 12.9223 23.8914 14.4437 23.8914 16H16.0151V23.8689C14.4573 23.8689 12.9345 23.4073 11.6393 22.5427C10.344 21.6781 9.33448 20.4491 8.73835 19.0113C8.14223 17.5734 7.98625 15.9913 8.29014 14.4649C8.59406 12.9385 9.3442 11.5364 10.4457 10.4359C11.5472 9.3354 12.9507 8.58597 14.4785 8.28233C16.0063 7.97873 17.59 8.13456 19.0292 8.73012C20.4684 9.32569 21.6985 10.3343 22.564 11.6283Z" fill="#07070A"/>
<path d="M45.1632 23.0823C44.1942 23.0823 43.2916 22.9076 42.4559 22.5581C41.632 22.2085 40.9114 21.7205 40.2936 21.0938C39.6758 20.4671 39.1914 19.7319 38.8402 18.8883C38.501 18.0447 38.3314 17.1227 38.3314 16.1224C38.3314 15.1221 38.501 14.2002 38.8402 13.3566C39.1794 12.5009 39.6577 11.7658 40.2755 11.1511C40.8932 10.5244 41.6139 10.0424 42.4378 9.70491C43.2735 9.3554 44.1819 9.18066 45.1632 9.18066C46.1444 9.18066 47.0226 9.34337 47.7976 9.66877C48.585 9.99415 49.2513 10.428 49.7963 10.9703C50.3414 11.5127 50.7291 12.1152 50.9591 12.7781L48.47 13.9712C48.24 13.3204 47.8341 12.7841 47.2525 12.3623C46.6834 11.9284 45.9868 11.7115 45.1632 11.7115C44.3635 11.7115 43.6612 11.8983 43.0555 12.2719C42.4499 12.6455 41.9773 13.1637 41.6383 13.8266C41.3112 14.4774 41.1477 15.2427 41.1477 16.1224C41.1477 17.0022 41.3112 17.7735 41.6383 18.4364C41.9773 19.0992 42.4499 19.6174 43.0555 19.991C43.6612 20.3646 44.3635 20.5514 45.1632 20.5514C45.9868 20.5514 46.6834 20.3405 47.2525 19.9187C47.8341 19.4849 48.24 18.9426 48.47 18.2917L50.9591 19.4849C50.7291 20.1477 50.3414 20.7503 49.7963 21.2926C49.2513 21.835 48.585 22.2688 47.7976 22.5942C47.0226 22.9196 46.1444 23.0823 45.1632 23.0823Z" fill="#07070A"/>
<path d="M57.3132 23.0816C56.3318 23.0816 55.4355 22.8586 54.624 22.4127C53.8246 21.9668 53.1826 21.3582 52.698 20.5868C52.2257 19.8035 51.9894 18.9177 51.9894 17.9294C51.9894 16.9292 52.2257 16.0434 52.698 15.2721C53.1826 14.5008 53.8246 13.8921 54.624 13.4462C55.4355 13.0003 56.3318 12.7773 57.3132 12.7773C58.2943 12.7773 59.1846 13.0003 59.9841 13.4462C60.7835 13.8921 61.4194 14.5008 61.892 15.2721C62.3763 16.0434 62.6187 16.9292 62.6187 17.9294C62.6187 18.9177 62.3763 19.8035 61.892 20.5868C61.4194 21.3582 60.7835 21.9668 59.9841 22.4127C59.1846 22.8586 58.2943 23.0816 57.3132 23.0816ZM57.3132 20.6411C57.8097 20.6411 58.2397 20.5266 58.6031 20.2976C58.9785 20.0686 59.2694 19.7493 59.4753 19.3395C59.6934 18.9297 59.8024 18.4597 59.8024 17.9294C59.8024 17.3992 59.6934 16.9352 59.4753 16.5375C59.2694 16.1277 58.9785 15.8083 58.6031 15.5794C58.2397 15.3383 57.8097 15.2178 57.3132 15.2178C56.8165 15.2178 56.3804 15.3383 56.005 15.5794C55.6293 15.8083 55.3326 16.1277 55.1147 16.5375C54.9086 16.9352 54.8057 17.3992 54.8057 17.9294C54.8057 18.4597 54.9086 18.9297 55.1147 19.3395C55.3326 19.7493 55.6293 20.0686 56.005 20.2976C56.3804 20.5266 56.8165 20.6411 57.3132 20.6411Z" fill="#07070A"/>
<path d="M64.2239 22.8646V12.9943H66.7677V14.9467L66.6225 14.5128C66.8525 13.9223 67.2219 13.4884 67.7307 13.2112C68.2516 12.922 68.8573 12.7773 69.5478 12.7773C70.2986 12.7773 70.9529 12.934 71.51 13.2474C72.0795 13.5607 72.5216 14.0006 72.8364 14.567C73.1514 15.1214 73.3087 15.7722 73.3087 16.5194V22.8646H70.5835V17.0979C70.5835 16.7122 70.5047 16.3808 70.3472 16.1036C70.2018 15.8264 69.9899 15.6095 69.7113 15.4528C69.4449 15.2962 69.1298 15.2178 68.7664 15.2178C68.4152 15.2178 68.1001 15.2962 67.8216 15.4528C67.543 15.6095 67.3251 15.8264 67.1676 16.1036C67.0221 16.3808 66.9494 16.7122 66.9494 17.0979V22.8646H64.2239Z" fill="#07070A"/>
<path d="M78.0305 22.8655L74.1241 12.9951H77.0675L79.7748 20.4611H78.6483L81.3556 12.9951H84.299L80.3926 22.8655H78.0305Z" fill="#07070A"/>
<path d="M90.1 23.0816C89.0461 23.0816 88.1317 22.8526 87.3564 22.3946C86.5811 21.9246 85.9817 21.2979 85.5577 20.5146C85.1337 19.7312 84.9216 18.8635 84.9216 17.9114C84.9216 16.9231 85.1397 16.0434 85.5758 15.2721C86.024 14.5008 86.6236 13.8921 87.3745 13.4462C88.1256 13.0003 88.9736 12.7773 89.9183 12.7773C90.7056 12.7773 91.4022 12.9039 92.0079 13.157C92.6135 13.398 93.1223 13.7415 93.534 14.1874C93.958 14.6333 94.2791 15.1515 94.497 15.7421C94.7152 16.3206 94.8241 16.9533 94.8241 17.6402C94.8241 17.833 94.8121 18.0259 94.7879 18.2187C94.7756 18.3995 94.7454 18.5561 94.6968 18.6887H87.2655V16.7002H93.1525L91.8624 17.6402C91.9837 17.122 91.9777 16.664 91.8443 16.2663C91.7112 15.8566 91.4749 15.5372 91.1357 15.3082C90.8086 15.0672 90.4029 14.9467 89.9183 14.9467C89.446 14.9467 89.0401 15.0611 88.7009 15.2901C88.3619 15.5191 88.1075 15.8566 87.9379 16.3025C87.7683 16.7484 87.7016 17.2907 87.7379 17.9294C87.6896 18.4838 87.7562 18.9719 87.9379 19.3937C88.1196 19.8155 88.3982 20.147 88.7736 20.388C89.1493 20.617 89.6035 20.7315 90.1365 20.7315C90.6208 20.7315 91.0328 20.635 91.372 20.4422C91.7233 20.2494 91.9958 19.9843 92.1895 19.6468L94.3699 20.6772C94.1762 21.1593 93.8672 21.5811 93.4432 21.9427C93.0315 22.3042 92.5408 22.5874 91.9716 22.7923C91.4022 22.9851 90.7784 23.0816 90.1 23.0816Z" fill="#07070A"/>
<path d="M96.429 22.8656V12.9952H98.9728V15.3634L98.7911 15.0199C99.009 14.1883 99.3663 13.6279 99.8631 13.3387C100.372 13.0374 100.971 12.8867 101.662 12.8867H102.243V15.2368H101.389C100.723 15.2368 100.184 15.4417 99.7722 15.8514C99.3603 16.2492 99.1545 16.8156 99.1545 17.5507V22.8656H96.429Z" fill="#07070A"/>
<path d="M108.571 22.9734C107.372 22.9734 106.439 22.654 105.773 22.0153C105.119 21.3644 104.792 20.4606 104.792 19.3036V15.3446H103.12V12.9946H103.211C103.72 12.9946 104.108 12.868 104.374 12.6149C104.653 12.3618 104.792 11.9822 104.792 11.476V10.7529H107.517V12.9946H109.843V15.3446H107.517V19.1228C107.517 19.4603 107.578 19.7435 107.699 19.9725C107.82 20.1894 108.008 20.3521 108.262 20.4606C108.517 20.569 108.832 20.6233 109.207 20.6233C109.292 20.6233 109.389 20.6172 109.498 20.6052C109.607 20.5931 109.722 20.5811 109.843 20.569V22.8649C109.661 22.889 109.456 22.9131 109.225 22.9372C108.995 22.9613 108.777 22.9734 108.571 22.9734Z" fill="#07070A"/>
<path d="M111.64 22.8653V9.39746H114.456V16.1404L113.675 15.8692L119.09 9.39746H122.614L117.254 15.8331L117.418 13.8445L122.723 22.8653H119.435L116.128 17.1708L114.456 19.1774V22.8653H111.64Z" fill="#07070A"/>
<path d="M123.914 22.8653V12.9949H126.64V22.8653H123.914ZM123.914 12.1091V9.39746H126.64V12.1091H123.914Z" fill="#07070A"/>
<path d="M133.413 22.9734C132.213 22.9734 131.281 22.654 130.615 22.0153C129.96 21.3644 129.633 20.4606 129.633 19.3036V15.3446H127.962V12.9946H128.053C128.561 12.9946 128.949 12.868 129.215 12.6149C129.494 12.3618 129.633 11.9822 129.633 11.476V10.7529H132.359V12.9946H134.684V15.3446H132.359V19.1228C132.359 19.4603 132.419 19.7435 132.541 19.9725C132.662 20.1894 132.849 20.3521 133.104 20.4606C133.358 20.569 133.673 20.6233 134.049 20.6233C134.133 20.6233 134.23 20.6172 134.339 20.6052C134.448 20.5931 134.563 20.5811 134.684 20.569V22.8649C134.503 22.889 134.297 22.9131 134.067 22.9372C133.836 22.9613 133.619 22.9734 133.413 22.9734Z" fill="#07070A"/>
<path d="M136.436 11.9246V9.05859H137.534C137.732 9.05859 137.906 9.09322 138.058 9.16246C138.212 9.23171 138.332 9.33432 138.42 9.47024C138.507 9.60616 138.55 9.77413 138.55 9.97419C138.55 10.1691 138.505 10.3358 138.416 10.4743C138.326 10.6102 138.205 10.7128 138.054 10.7821L138.708 11.9246H138.038L137.33 10.659L137.715 10.8859H137.033V11.9246H136.436ZM137.033 10.3666H137.538C137.623 10.3666 137.696 10.3499 137.757 10.3166C137.819 10.2832 137.866 10.2371 137.9 10.1781C137.936 10.1191 137.954 10.0511 137.954 9.97419C137.954 9.89469 137.936 9.82544 137.9 9.76645C137.866 9.70746 137.819 9.6613 137.757 9.62796C137.696 9.59462 137.623 9.57794 137.538 9.57794H137.033V10.3666Z" fill="#07070A"/>
<path fill-rule="evenodd" clip-rule="evenodd" d="M137.572 8.04883C136.222 8.04883 135.127 9.14255 135.127 10.4917C135.127 11.8409 136.222 12.9346 137.572 12.9346C138.923 12.9346 140.018 11.8409 140.018 10.4917C140.018 9.14255 138.923 8.04883 137.572 8.04883ZM134.627 10.4917C134.627 8.86641 135.945 7.54883 137.572 7.54883C139.199 7.54883 140.518 8.86641 140.518 10.4917C140.518 12.117 139.199 13.4346 137.572 13.4346C135.945 13.4346 134.627 12.117 134.627 10.4917Z" fill="#07070A"/>
</g>
<defs>
<clipPath id="clip0_650_341">
<rect width="140.46" height="32" fill="white"/>
</clipPath>
</defs>
</svg>
