<svg width="141" height="32" viewBox="0 0 141 32" fill="none" xmlns="http://www.w3.org/2000/svg">
<g clip-path="url(#clip0_1_735)">
<path fill-rule="evenodd" clip-rule="evenodd" d="M1.68064 3.70953C0 6.04315 0 9.3621 0 16C0 22.6379 0 25.9569 1.68064 28.2904C2.24387 29.0725 2.93024 29.7582 3.71303 30.321C6.04884 32 9.37092 32 16.0151 32C22.6592 32 25.9813 32 28.317 30.321C29.0999 29.7582 29.7862 29.0725 30.3496 28.2904C32.0302 25.9569 32.0302 22.6379 32.0302 16C32.0302 9.3621 32.0302 6.04315 30.3496 3.70953C29.7862 2.92748 29.0999 2.24175 28.317 1.67905C25.9813 0 22.6592 0 16.0151 0C9.37092 0 6.04884 0 3.71303 1.67905C2.93024 2.24175 2.24387 2.92748 1.68064 3.70953ZM22.564 11.6283C23.4294 12.9223 23.8914 14.4437 23.8914 16H16.0151V23.8689C14.4573 23.8689 12.9345 23.4073 11.6393 22.5427C10.344 21.6781 9.33448 20.4491 8.73835 19.0113C8.14223 17.5734 7.98625 15.9913 8.29014 14.4649C8.59406 12.9385 9.3442 11.5364 10.4457 10.4359C11.5472 9.3354 12.9507 8.58597 14.4785 8.28233C16.0063 7.97873 17.59 8.13456 19.0292 8.73012C20.4684 9.32569 21.6985 10.3343 22.564 11.6283Z" fill="#FAD007"/>
<path d="M45.1631 23.0818C44.194 23.0818 43.2914 22.9071 42.4557 22.5576C41.6319 22.2081 40.9112 21.72 40.2934 21.0933C39.6757 20.4666 39.1913 19.7314 38.84 18.8878C38.5008 18.0442 38.3312 17.1222 38.3312 16.1219C38.3312 15.1217 38.5008 14.1997 38.84 13.3561C39.1792 12.5004 39.6575 11.7653 40.2753 11.1506C40.8931 10.5239 41.6137 10.0419 42.4376 9.70442C43.2733 9.35492 44.1817 9.18018 45.1631 9.18018C46.1442 9.18018 47.0224 9.34288 47.7974 9.66828C48.5848 9.99366 49.2511 10.4275 49.7961 10.9698C50.3412 11.5122 50.729 12.1148 50.9589 12.7776L48.4698 13.9707C48.2398 13.3199 47.8339 12.7836 47.2524 12.3618C46.6832 11.928 45.9867 11.711 45.1631 11.711C44.3634 11.711 43.6611 11.8978 43.0554 12.2714C42.4497 12.645 41.9771 13.1633 41.6382 13.8261C41.311 14.4769 41.1475 15.2422 41.1475 16.1219C41.1475 17.0017 41.311 17.773 41.6382 18.4359C41.9771 19.0987 42.4497 19.6169 43.0554 19.9906C43.6611 20.3641 44.3634 20.551 45.1631 20.551C45.9867 20.551 46.6832 20.34 47.2524 19.9182C47.8339 19.4844 48.2398 18.9421 48.4698 18.2913L50.9589 19.4844C50.729 20.1472 50.3412 20.7498 49.7961 21.2921C49.2511 21.8345 48.5848 22.2683 47.7974 22.5937C47.0224 22.9191 46.1442 23.0818 45.1631 23.0818Z" fill="#FAD007"/>
<path d="M57.313 23.082C56.3316 23.082 55.4353 22.8591 54.6237 22.4132C53.8243 21.9673 53.1824 21.3587 52.6977 20.5873C52.2254 19.804 51.9891 18.9182 51.9891 17.9299C51.9891 16.9296 52.2254 16.0439 52.6977 15.2725C53.1824 14.5012 53.8243 13.8926 54.6237 13.4467C55.4353 13.0008 56.3316 12.7778 57.313 12.7778C58.2941 12.7778 59.1844 13.0008 59.9838 13.4467C60.7833 13.8926 61.4191 14.5012 61.8917 15.2725C62.3761 16.0439 62.6184 16.9296 62.6184 17.9299C62.6184 18.9182 62.3761 19.804 61.8917 20.5873C61.4191 21.3587 60.7833 21.9673 59.9838 22.4132C59.1844 22.8591 58.2941 23.082 57.313 23.082ZM57.313 20.6416C57.8094 20.6416 58.2395 20.5271 58.6028 20.2981C58.9783 20.0691 59.2692 19.7497 59.475 19.34C59.6932 18.9302 59.8021 18.4602 59.8021 17.9299C59.8021 17.3997 59.6932 16.9357 59.475 16.538C59.2692 16.1282 58.9783 15.8088 58.6028 15.5799C58.2395 15.3388 57.8094 15.2183 57.313 15.2183C56.8162 15.2183 56.3802 15.3388 56.0047 15.5799C55.629 15.8088 55.3323 16.1282 55.1144 16.538C54.9083 16.9357 54.8054 17.3997 54.8054 17.9299C54.8054 18.4602 54.9083 18.9302 55.1144 19.34C55.3323 19.7497 55.629 20.0691 56.0047 20.2981C56.3802 20.5271 56.8162 20.6416 57.313 20.6416Z" fill="#FAD007"/>
<path d="M64.2239 22.8651V12.9948H66.7676V14.9471L66.6225 14.5133C66.8525 13.9228 67.2219 13.4889 67.7307 13.2117C68.2515 12.9225 68.8572 12.7778 69.5477 12.7778C70.2986 12.7778 70.9528 12.9345 71.51 13.2479C72.0794 13.5612 72.5215 14.0011 72.8363 14.5675C73.1514 15.1219 73.3086 15.7727 73.3086 16.5199V22.8651H70.5834V17.0984C70.5834 16.7127 70.5047 16.3813 70.3472 16.1041C70.2017 15.8269 69.9898 15.61 69.7113 15.4533C69.4448 15.2967 69.1297 15.2183 68.7664 15.2183C68.4151 15.2183 68.1 15.2967 67.8215 15.4533C67.5429 15.61 67.325 15.8269 67.1675 16.1041C67.0221 16.3813 66.9493 16.7127 66.9493 17.0984V22.8651H64.2239Z" fill="#FAD007"/>
<path d="M78.0305 22.865L74.1241 12.9946H77.0675L79.7748 20.4606H78.6483L81.3556 12.9946H84.299L80.3926 22.865H78.0305Z" fill="#FAD007"/>
<path d="M90.0998 23.082C89.0459 23.082 88.1315 22.8531 87.3562 22.3951C86.5809 21.9251 85.9815 21.2984 85.5575 20.515C85.1335 19.7317 84.9214 18.8639 84.9214 17.9119C84.9214 16.9236 85.1396 16.0439 85.5756 15.2725C86.0238 14.5012 86.6234 13.8926 87.3743 13.4467C88.1255 13.0008 88.9735 12.7778 89.9181 12.7778C90.7055 12.7778 91.402 12.9044 92.0077 13.1575C92.6134 13.3985 93.1222 13.742 93.5338 14.1879C93.9578 14.6338 94.2789 15.152 94.4968 15.7426C94.715 16.321 94.824 16.9538 94.824 17.6407C94.824 17.8335 94.8119 18.0264 94.7877 18.2192C94.7754 18.3999 94.7452 18.5566 94.6966 18.6892H87.2654V16.7007H93.1523L91.8622 17.6407C91.9835 17.1225 91.9775 16.6645 91.8441 16.2668C91.711 15.857 91.4747 15.5377 91.1355 15.3087C90.8084 15.0677 90.4027 14.9471 89.9181 14.9471C89.4458 14.9471 89.0399 15.0616 88.7007 15.2906C88.3617 15.5196 88.1073 15.857 87.9377 16.3029C87.7681 16.7489 87.7014 17.2912 87.7377 17.9299C87.6894 18.4843 87.7561 18.9724 87.9377 19.3942C88.1194 19.816 88.398 20.1475 88.7734 20.3885C89.1491 20.6175 89.6033 20.732 90.1363 20.732C90.6207 20.732 91.0326 20.6355 91.3718 20.4427C91.7231 20.2499 91.9956 19.9848 92.1893 19.6473L94.3698 20.6777C94.176 21.1598 93.867 21.5816 93.443 21.9432C93.0313 22.3047 92.5406 22.5879 91.9714 22.7928C91.402 22.9856 90.7782 23.082 90.0998 23.082Z" fill="#FAD007"/>
<path d="M96.429 22.8651V12.9947H98.9727V15.3629L98.7911 15.0194C99.009 14.1878 99.3663 13.6274 99.863 13.3382C100.372 13.0369 100.971 12.8862 101.662 12.8862H102.243V15.2363H101.389C100.723 15.2363 100.184 15.4412 99.7722 15.851C99.3602 16.2487 99.1544 16.8151 99.1544 17.5503V22.8651H96.429Z" fill="#FAD007"/>
<path d="M108.571 22.9734C107.372 22.9734 106.439 22.654 105.773 22.0153C105.119 21.3644 104.792 20.4606 104.792 19.3036V15.3446H103.12V12.9946H103.211C103.72 12.9946 104.108 12.868 104.374 12.6149C104.653 12.3618 104.792 11.9822 104.792 11.476V10.7529H107.517V12.9946H109.843V15.3446H107.517V19.1228C107.517 19.4603 107.578 19.7435 107.699 19.9725C107.82 20.1894 108.008 20.3521 108.262 20.4606C108.517 20.569 108.832 20.6233 109.207 20.6233C109.292 20.6233 109.389 20.6172 109.498 20.6052C109.607 20.5931 109.722 20.5811 109.843 20.569V22.8649C109.661 22.889 109.456 22.9131 109.225 22.9372C108.995 22.9613 108.777 22.9734 108.571 22.9734Z" fill="#FAD007"/>
<path d="M111.64 22.8653V9.39746H114.456V16.1404L113.675 15.8692L119.09 9.39746H122.614L117.254 15.8331L117.418 13.8445L122.723 22.8653H119.435L116.128 17.1708L114.456 19.1774V22.8653H111.64Z" fill="#FAD007"/>
<path d="M123.914 22.8653V12.9949H126.639V22.8653H123.914ZM123.914 12.1091V9.39746H126.639V12.1091H123.914Z" fill="#FAD007"/>
<path d="M133.412 22.9734C132.213 22.9734 131.28 22.654 130.614 22.0153C129.96 21.3644 129.633 20.4606 129.633 19.3036V15.3446H127.962V12.9946H128.052C128.561 12.9946 128.949 12.868 129.215 12.6149C129.494 12.3618 129.633 11.9822 129.633 11.476V10.7529H132.359V12.9946H134.684V15.3446H132.359V19.1228C132.359 19.4603 132.419 19.7435 132.54 19.9725C132.661 20.1894 132.849 20.3521 133.103 20.4606C133.358 20.569 133.673 20.6233 134.048 20.6233C134.133 20.6233 134.23 20.6172 134.339 20.6052C134.448 20.5931 134.563 20.5811 134.684 20.569V22.8649C134.503 22.889 134.297 22.9131 134.066 22.9372C133.836 22.9613 133.618 22.9734 133.412 22.9734Z" fill="#FAD007"/>
<path d="M136.436 11.9246V9.05859H137.534C137.731 9.05859 137.906 9.09322 138.057 9.16246C138.211 9.23171 138.332 9.33432 138.419 9.47024C138.507 9.60616 138.55 9.77413 138.55 9.97419C138.55 10.1691 138.505 10.3358 138.415 10.4743C138.326 10.6102 138.205 10.7128 138.053 10.7821L138.708 11.9246H138.038L137.33 10.659L137.715 10.8859H137.033V11.9246H136.436ZM137.033 10.3666H137.538C137.622 10.3666 137.695 10.3499 137.757 10.3166C137.819 10.2832 137.866 10.2371 137.9 10.1781C137.936 10.1191 137.953 10.0511 137.953 9.97419C137.953 9.89469 137.936 9.82544 137.9 9.76645C137.866 9.70746 137.819 9.6613 137.757 9.62796C137.695 9.59462 137.622 9.57794 137.538 9.57794H137.033V10.3666Z" fill="#FAD007"/>
<path fill-rule="evenodd" clip-rule="evenodd" d="M137.572 8.04883C136.222 8.04883 135.127 9.14255 135.127 10.4917C135.127 11.8409 136.222 12.9346 137.572 12.9346C138.923 12.9346 140.017 11.8409 140.017 10.4917C140.017 9.14255 138.923 8.04883 137.572 8.04883ZM134.626 10.4917C134.626 8.86641 135.945 7.54883 137.572 7.54883C139.199 7.54883 140.518 8.86641 140.518 10.4917C140.518 12.117 139.199 13.4346 137.572 13.4346C135.945 13.4346 134.626 12.117 134.626 10.4917Z" fill="#FAD007"/>
</g>
<defs>
<clipPath id="clip0_1_735">
<rect width="140.46" height="32" fill="white"/>
</clipPath>
</defs>
</svg>
