<svg width="115" height="32" viewBox="0 0 115 32" fill="none" xmlns="http://www.w3.org/2000/svg">
<path d="M0 15.9806L16.1324 0L21.0693 4.89044L4.93692 20.871L0 15.9806Z" fill="#FAD007"/>
<path d="M0.372283 26.4598L16.5047 10.4793L21.4416 15.3697L5.3092 31.3503L0.372283 26.4598Z" fill="#FAD007"/>
<path d="M37.0765 14.6727C38.0324 14.6727 38.5105 14.3462 38.5105 13.6933V11.3848C38.5105 10.7319 38.0324 10.4055 37.0765 10.4055H34.3831V14.6727H37.0765ZM31.0254 23.1021V8.44678H37.7759C38.8953 8.44678 39.8512 8.67995 40.6441 9.14631C41.4602 9.61268 41.8682 10.2539 41.8682 11.07V14.0081C41.8682 14.8242 41.4602 15.4655 40.6441 15.9319C39.8512 16.3982 38.8953 16.6315 37.7759 16.6315H34.3831V23.1021H31.0254Z" fill="#FAD007"/>
<path d="M50.4489 14.6377C51.405 14.6377 51.8831 14.3113 51.8831 13.6583V11.3848C51.8831 10.7319 51.405 10.4055 50.4489 10.4055H47.7557V14.6377H50.4489ZM51.1834 16.5964L56.0102 23.1021H52.4776L47.7557 16.7364V23.1021H44.398V8.44678H51.1485C52.2677 8.44678 53.2238 8.67995 54.0167 9.14631C54.8327 9.61268 55.2408 10.2539 55.2408 11.07V13.9731C55.2408 14.7893 54.8444 15.4305 54.0516 15.8969C53.2587 16.3633 52.3028 16.5964 51.1834 16.5964Z" fill="#FAD007"/>
<path d="M63.6259 21.1435C64.5586 21.1435 65.025 20.817 65.025 20.1641V11.3848C65.025 10.7319 64.5586 10.4055 63.6259 10.4055H62.0868C61.1309 10.4055 60.6528 10.7319 60.6528 11.3848V20.1641C60.6528 20.817 61.1309 21.1435 62.0868 21.1435H63.6259ZM57.2949 11.07C57.2949 10.2772 57.6915 9.64765 58.4841 9.1813C59.3004 8.69162 60.2797 8.44678 61.4223 8.44678H64.2904C66.0859 8.44678 67.3451 8.94812 68.0679 9.95079C68.3012 10.2772 68.4176 10.6503 68.4176 11.07V20.4788C68.4176 21.2716 68.0096 21.9129 67.1935 22.4025C66.4007 22.869 65.433 23.1021 64.2904 23.1021H61.4223C59.6267 23.1021 58.3677 22.6008 57.6448 21.5981C57.4116 21.2716 57.2949 20.8985 57.2949 20.4788V11.07Z" fill="#FAD007"/>
<path d="M81.1517 23.1021H71.1133V8.44678H74.4712V21.1435H81.1517V23.1021Z" fill="#FAD007"/>
<path d="M83.8147 23.1021V8.44678H87.1726V23.1021H83.8147Z" fill="#FAD007"/>
<path d="M89.8052 23.1021V8.44678H93.2678L98.5144 17.4009V8.48175H101.907V23.1021H98.3745L93.1629 14.2879V23.1021H89.8052Z" fill="#FAD007"/>
<path d="M114.791 23.1021H104.753V8.44678H114.791V10.4055H108.11V14.3229H113.357V16.2816H108.11V21.1435H114.791V23.1021Z" fill="#FAD007"/>
</svg>
