<svg width="98" height="32" viewBox="0 0 98 32" fill="none" xmlns="http://www.w3.org/2000/svg">
<path d="M10.075 26.4265C8.83537 26.4265 7.66667 26.2052 6.56874 25.7624C5.48853 25.302 4.54999 24.6557 3.75312 23.8234C2.97395 22.9911 2.38958 22.0083 2 20.8749L5.37343 19.3609C5.86925 20.4411 6.55103 21.2911 7.41873 21.9109C8.30417 22.5307 9.27812 22.8406 10.3406 22.8406C10.9072 22.8406 11.3942 22.752 11.8015 22.5749C12.2088 22.3979 12.5276 22.1588 12.7578 21.8578C12.988 21.539 13.1031 21.1671 13.1031 20.7421C13.1031 20.2817 12.9614 19.8921 12.6781 19.5734C12.3947 19.2369 11.952 18.9713 11.35 18.7766L7.47185 17.5015C5.89582 16.988 4.70936 16.2619 3.91249 15.3234C3.11562 14.3671 2.71718 13.225 2.71718 11.8969C2.71718 10.7281 3.00052 9.70103 3.56718 8.81559C4.15155 7.93021 4.95728 7.23959 5.98436 6.74375C7.02915 6.24792 8.22443 6 9.57029 6C10.7567 6 11.8546 6.20365 12.864 6.61094C13.8734 7.01821 14.7411 7.59377 15.4671 8.33751C16.2109 9.08125 16.7687 9.97553 17.1406 11.0203L13.7937 12.5344C13.4218 11.6135 12.864 10.8964 12.1203 10.3828C11.3766 9.85156 10.5265 9.58596 9.57029 9.58596C9.02136 9.58596 8.53438 9.67447 8.10936 9.85156C7.68433 10.0286 7.35675 10.2854 7.12654 10.6219C6.89634 10.9406 6.78124 11.3125 6.78124 11.7375C6.78124 12.1979 6.93175 12.6052 7.23279 12.9593C7.5338 13.2958 7.98539 13.5614 8.5875 13.7562L12.3859 14.9781C13.9796 15.4916 15.1661 16.2088 15.9453 17.1296C16.7421 18.0505 17.1406 19.1749 17.1406 20.5031C17.1406 21.6541 16.8395 22.6812 16.2374 23.5843C15.6354 24.4697 14.8031 25.1692 13.7406 25.6827C12.6958 26.1786 11.4739 26.4265 10.075 26.4265Z" fill="#FAD007"/>
<path d="M20.0746 26.1078V6.31885H24.1918V26.1078H20.0746Z" fill="#FAD007"/>
<path d="M27.7009 26.1078V6.31885H31.8181V22.5219H49.1853V26.1078H27.7009Z" fill="#FAD007"/>
<path d="M54.5499 13.5735C54.5499 14.813 54.3286 16.9818 53.8858 18.0797C53.4254 19.1599 52.7791 20.0985 51.9468 20.8953C51.1145 21.6745 50.1317 22.2589 48.9983 22.6484L47.4843 19.275C48.5645 18.7792 49.4145 18.0974 50.0343 17.2297C50.6541 16.3443 50.964 14.3704 50.964 13.3078C50.964 12.7412 50.8755 12.2542 50.6984 11.8469C50.5213 11.4396 50.2822 11.1209 49.9812 10.8907C49.6624 10.6605 49.2906 10.5454 48.8655 10.5454C48.4051 10.5454 48.0155 10.687 47.6968 10.9704C47.3603 11.2537 47.0947 11.6964 46.9 12.2985L45.625 16.1766C45.1114 17.7526 44.3853 18.9391 43.4468 19.736C42.4906 20.5329 41.3484 20.9313 40.0203 20.9313C38.8515 20.9313 37.8244 20.6479 36.939 20.0813C36.0536 19.4969 35.363 18.6912 34.8672 17.6641C34.3713 16.6193 34.1234 15.424 34.1234 14.0782C34.1234 12.8917 34.3271 11.7938 34.7344 10.7844C35.1416 9.77503 35.7172 8.90732 36.4609 8.1813C37.2047 7.43756 38.0989 6.87973 39.1437 6.50789L40.6578 9.85477C39.737 10.2266 39.0198 10.7844 38.5062 11.5282C37.975 12.2719 37.7094 13.1219 37.7094 14.0782C37.7094 14.6271 37.7979 15.1141 37.975 15.5391C38.1521 15.9641 38.4088 16.2917 38.7453 16.5219C39.064 16.7521 39.4359 16.8672 39.8609 16.8672C40.3213 16.8672 40.7286 16.7167 41.0827 16.4157C41.4192 16.1146 41.6849 15.663 41.8796 15.061L43.1015 11.2626C43.615 9.66879 44.3322 8.48236 45.2531 7.70316C46.1739 6.9063 47.2984 6.50789 48.6265 6.50789C49.7775 6.50789 50.8046 6.80895 51.7077 7.411C52.5931 8.01311 53.2926 8.84537 53.8061 9.90789C54.302 10.9526 54.5499 12.1745 54.5499 13.5735Z" fill="#FAD007"/>
<path d="M56.4254 26.1078V6.31885H60.5426V26.1078H56.4254Z" fill="#FAD007"/>
<path d="M63.1234 26.2968V6.50781H67.2405V22.7109H75.6079V26.2968H63.1234Z" fill="#FAD007"/>
<path d="M77.1173 26.1078L83.8111 6.31885H89.2824L95.9762 26.1078H91.4872L90.1592 22.0703H82.9074L81.5794 26.1078H77.1173ZM84.0498 18.4844H89.0168L85.989 9.13447H87.1045L84.0498 18.4844Z" fill="#FAD007"/>
</svg>
