<svg width="91" height="24" viewBox="0 0 91 24" fill="none" xmlns="http://www.w3.org/2000/svg">
<path fill-rule="evenodd" clip-rule="evenodd" d="M11.7647 0C12.2845 0 12.7059 0.421379 12.7059 0.941176V6.11765C12.7059 6.63744 12.2845 7.05882 11.7647 7.05882C11.2449 7.05882 10.8235 6.63744 10.8235 6.11765V0.941176C10.8235 0.421379 11.2449 0 11.7647 0ZM16.9412 0C17.461 0 17.8824 0.421379 17.8824 0.941176V12.2353H12.7059V19.2941H16.4706V17.4118C16.4706 16.892 16.892 16.4706 17.4118 16.4706C17.9316 16.4706 18.3529 16.892 18.3529 17.4118V23.0588C18.3529 23.5786 17.9316 24 17.4118 24C16.892 24 16.4706 23.5786 16.4706 23.0588V21.1765H12.7059V23.0588C12.7059 23.5786 12.2845 24 11.7647 24C11.2449 24 10.8235 23.5786 10.8235 23.0588V10.3529H16V0.941176C16 0.421379 16.4214 0 16.9412 0ZM6.58824 2.82353C7.10803 2.82353 7.52941 3.24491 7.52941 3.76471V20.2353C7.52941 20.7551 7.10803 21.1765 6.58824 21.1765C6.06844 21.1765 5.64706 20.7551 5.64706 20.2353V8.47059H1.88235V12.2353C1.88235 12.7551 1.46097 13.1765 0.941177 13.1765C0.421379 13.1765 0 12.7551 0 12.2353V6.11765C0 5.59785 0.421379 5.17647 0.941177 5.17647C1.46097 5.17647 1.88235 5.59785 1.88235 6.11765V6.58824H5.64706V3.76471C5.64706 3.24491 6.06844 2.82353 6.58824 2.82353ZM23.0588 2.82353C23.5786 2.82353 24 3.24491 24 3.76471V7.52941H26.8235V6.11765C26.8235 5.59785 27.2449 5.17647 27.7647 5.17647C28.2845 5.17647 28.7059 5.59785 28.7059 6.11765V17.8824C28.7059 18.4022 28.2845 18.8235 27.7647 18.8235C27.2449 18.8235 26.8235 18.4022 26.8235 17.8824V16.9412H24V19.2941C24 19.8139 23.5786 20.2353 23.0588 20.2353C22.539 20.2353 22.1176 19.8139 22.1176 19.2941V3.76471C22.1176 3.24491 22.539 2.82353 23.0588 2.82353ZM24 15.0588H26.8235V9.41177H24V15.0588Z" fill="#FAD007"/>
<path d="M49.6984 18.3645H46.7313L44.1845 9.93617L41.6901 18.3645H38.7494L34.7059 5H37.6203L40.1935 13.4808L42.6879 5H45.6286L48.1754 13.4284L50.696 5H53.6105L49.6984 18.3645Z" fill="#FAD007"/>
<path d="M54.7421 9.22725C54.7945 8.66713 54.9171 8.13322 55.1096 7.62565C55.3197 7.11802 55.6173 6.67166 56.0024 6.28656C56.3875 5.90146 56.8688 5.59514 57.4464 5.36758C58.024 5.12252 58.6893 5 59.4419 5H61.0173C61.8049 5 62.4877 5.13127 63.0653 5.39385C63.6605 5.65641 64.1505 6.00649 64.5357 6.4441C64.9208 6.8642 65.2096 7.35426 65.4021 7.91451C65.5947 8.45703 65.691 9.00842 65.691 9.56866V18.3645H58.2341C57.6565 18.3645 57.1401 18.2595 56.6849 18.0494C56.2299 17.8218 55.8448 17.5331 55.5297 17.1829C55.2321 16.8154 55.0046 16.3865 54.847 15.8964C54.707 15.4063 54.6369 14.8812 54.6369 14.321C54.6369 13.7784 54.7157 13.2708 54.8733 12.7982C55.0308 12.3256 55.2584 11.9229 55.556 11.5903C55.8536 11.2403 56.2212 10.9689 56.6587 10.7764C57.1139 10.5663 57.6214 10.4613 58.1816 10.4613H62.6714V10.1988C62.6714 9.88374 62.6452 9.59488 62.5926 9.33236C62.5402 9.05223 62.444 8.81593 62.3039 8.62343C62.1638 8.43082 61.9537 8.28202 61.6737 8.17703C61.3936 8.05445 61.0173 7.99328 60.5446 7.99328H59.8883C59.1881 7.99328 58.6893 8.09826 58.3917 8.30836C58.0941 8.50085 57.8928 8.80719 57.7877 9.22725H54.7421ZM55.1096 14.321C55.1096 14.7762 57.5339 15.1175 57.7089 15.345C57.9016 15.5551 58.1117 15.6601 58.3391 15.6601H62.6714V12.982H58.3391C58.1117 12.982 57.9016 13.0957 57.7089 13.3232C57.5339 13.5508 55.1096 13.8834 55.1096 14.321Z" fill="#FAD007"/>
<path d="M73.9978 18.3645H71.0571L67.0136 5H69.928L72.5012 13.4808L74.9956 5H77.9363L73.9978 18.3645Z" fill="#FAD007"/>
<path d="M79.3073 9.75242C79.3073 9.10479 79.4299 8.50085 79.675 7.94073C79.92 7.36313 80.2438 6.85545 80.6464 6.41785C81.049 5.98023 81.5129 5.6389 82.0381 5.39385C82.5631 5.13127 83.0883 5 83.6134 5H86.6067C87.2893 5 87.8932 5.14879 88.4184 5.44635C88.961 5.72642 89.4073 6.09402 89.7574 6.54912C90.1249 6.98673 90.4051 7.48559 90.5976 8.04571C90.8077 8.58836 90.9126 9.12226 90.9126 9.64743V13.0345H82.4056V13.7434C82.4056 14.3736 82.5807 14.8199 82.9307 15.0825C83.2809 15.345 83.7446 15.4764 84.3224 15.4764H90.44V18.417H83.6397C83.0446 18.417 82.4843 18.3032 81.9593 18.0757C81.4341 17.8306 80.9702 17.5068 80.5677 17.1042C80.1825 16.7016 79.8762 16.2202 79.6486 15.6601C79.4212 15.1 79.3073 14.4873 79.3073 13.8222V9.75242ZM82.4319 10.5401H85.1494L86.6723 12.2106L87.867 10.5401V10.4088C87.867 9.7262 87.692 9.16596 87.3418 8.72842C86.9918 8.27328 86.5192 8.04571 85.924 8.04571H84.296C84.016 8.04571 83.7622 8.11574 83.5347 8.2558C83.3071 8.37826 83.1145 8.54466 82.9569 8.75463C82.7994 8.96473 82.6682 9.21851 82.5631 9.51611C82.4756 9.79611 82.4319 10.0937 82.4319 10.4088V10.5401Z" fill="#FAD007"/>
</svg>
